<?xml version="1.0" encoding="utf-8"?>
<!-- Generator: Adobe Illustrator 26.0.3, SVG Export Plug-In . SVG Version: 6.00 Build 0)  -->
<svg version="1.1" id="visual" xmlns="http://www.w3.org/2000/svg" xmlns:xlink="http://www.w3.org/1999/xlink" x="0px" y="0px"
	 viewBox="0 0 960 540" style="enable-background:new 0 0 960 540;" xml:space="preserve">
<style type="text/css">
	.st0{fill:#FFFFFF;}
	.st1{fill:#FFF8F8;}
	.st2{fill:#FFE1E1;}
	.st3{fill:#FFC7C7;}
	.st4{fill:#FFAEAE;}
	.st5{fill:#FF8F8F;}
	.st6{fill:#FF6E6E;}
	.st7{fill:#FF4040;}
	.st8{fill:#FF0000;}
</style>
<rect class="st0" width="960" height="540"/>
<g transform="translate(960, 0)">
	<path class="st1" d="M0,324c-47,0.3-94,0.6-124-24.7c-30-25.3-43-76.2-65.5-109.8s-54.4-49.8-78.4-78.5S-308,41.1-324,0H0V324z"/>
	<path class="st2" d="M0,283.5c-41.1,0.3-82.2,0.6-108.5-21.6c-26.2-22.1-37.6-66.7-57.3-96.1s-47.6-43.6-68.6-68.7
		S-269.5,36-283.5,0H0V283.5z"/>
	<path class="st3" d="M0,243c-35.2,0.2-70.5,0.5-93-18.5s-32.3-57.2-49.1-82.4c-16.9-25.2-40.8-37.3-58.8-58.9
		C-218.9,61.7-231,30.9-243,0H0V243z"/>
	<path class="st4" d="M0,202.5c-29.4,0.2-58.7,0.4-77.5-15.4c-18.7-15.8-26.9-47.7-40.9-68.7c-14.1-21-34.1-31.1-49.1-49
		c-14.9-18-25-43.7-35-69.4H0V202.5z"/>
	<path class="st5" d="M0,162c-23.5,0.2-47,0.3-62-12.3c-15-12.7-21.5-38.2-32.8-54.9C-106,78-122,69.8-134,55.5
		c-12-14.4-20-34.9-28-55.5H0V162z"/>
	<path class="st6" d="M0,121.5c-17.6,0.1-35.2,0.2-46.5-9.2c-11.2-9.5-16.1-28.6-24.6-41.2c-8.4-12.6-20.4-18.7-29.4-29.5
		c-9-10.7-15-26.2-21-41.6H0V121.5z"/>
	<path class="st7" d="M0,81c-11.7,0.1-23.5,0.2-31-6.2c-7.5-6.3-10.8-19-16.4-27.4S-61,34.9-67,27.7C-73,20.6-77,10.3-81,0H0V81z"/>
	<path class="st8" d="M0,40.5c-5.9,0-11.7,0.1-15.5-3.1c-3.7-3.1-5.4-9.5-8.2-13.7s-6.8-6.2-9.8-9.8s-5-8.8-7-13.9H0V40.5z"/>
</g>
<g transform="translate(0, 540)">
	<path class="st1" d="M0-324c47.3-1.3,94.6-2.7,124,24.7c29.3,27.3,40.7,83.4,54.9,120.4c14.2,37,31.1,55.1,55.8,81.7
		c24.6,26.6,57,61.9,89.3,97.2H0V-324z"/>
	<path class="st2" d="M0-283.5c41.4-1.2,82.8-2.4,108.5,21.6c25.7,23.9,35.6,73,48,105.4s27.3,48.1,48.8,71.4
		c21.6,23.4,49.9,54.2,78.2,85.1H0V-283.5z"/>
	<path class="st3" d="M0-243c35.5-1,71-2,93,18.5s30.5,62.6,41.2,90.3c10.6,27.8,23.3,41.3,41.8,61.3S218.7-26.5,243,0H0V-243z"/>
	<path class="st4" d="M0-202.5c29.6-0.8,59.1-1.7,77.5,15.4C95.8-170,103-135,111.8-111.8c8.9,23.1,19.5,34.4,34.9,51
		C162.1-44.1,182.3-22,202.5,0H0V-202.5z"/>
	<path class="st5" d="M0-162c23.7-0.7,47.3-1.3,62,12.3C76.7-136,82.4-108,89.4-89.4c7.1,18.5,15.6,27.5,27.9,40.8
		c12.4,13.3,28.5,31,44.7,48.6H0V-162z"/>
	<path class="st6" d="M0-121.5c17.7-0.5,35.5-1,46.5,9.2C57.5-102,61.8-81,67.1-67.1S78.8-46.4,88-36.5c9.2,10,21.4,23.3,33.5,36.5
		H0V-121.5z"/>
	<path class="st7" d="M0-81c11.8-0.3,23.7-0.7,31,6.2C38.3-68,41.2-54,44.7-44.7c3.6,9.2,7.8,13.7,14,20.4C64.8-17.6,72.9-8.8,81,0
		H0V-81z"/>
	<path class="st8" d="M0-40.5c5.9-0.2,11.8-0.3,15.5,3.1c3.7,3.4,5.1,10.4,6.9,15c1.7,4.7,3.9,6.9,6.9,10.2
		C32.4-8.8,36.5-4.4,40.5,0H0V-40.5z"/>
</g>
</svg>
